<svg version="1.1" viewBox="0.0 0.0 155.41732283464566 100.0" fill="none" stroke="none" stroke-linecap="square" stroke-miterlimit="10" xmlns:xlink="http://www.w3.org/1999/xlink" xmlns="http://www.w3.org/2000/svg"><clipPath id="p.0"><path d="m0 0l155.41733 0l0 100.0l-155.41733 0l0 -100.0z" clip-rule="nonzero"/></clipPath><g clip-path="url(#p.0)"><path fill="#000000" fill-opacity="0.0" d="m0 0l155.41733 0l0 100.0l-155.41733 0z" fill-rule="evenodd"/><path fill="#000000" fill-opacity="0.0" d="m-11.698163 29.606298l177.38583 0l0 40.7874l-177.38583 0z" fill-rule="evenodd"/><path fill="#000000" d="m42.81532 55.70125q-1.015625 1.40625 -3.3125 1.40625q-2.296875 0 -3.328125 -1.40625q-1.015625 -1.40625 -1.015625 -4.390625l0 -1.828125q0 -2.984375 1.015625 -4.390625q1.03125 -1.421875 3.328125 -1.421875q2.296875 0 3.3125 1.421875q1.03125 1.40625 1.03125 4.390625l0 1.828125q0 2.984375 -1.03125 4.390625zm-1.75 -11.234375q-0.640625 -0.234375 -1.5625 -0.234375q-0.90625 0 -1.5625 0.234375q-0.65625 0.234375 -1.1875 0.796875q-0.515625 0.5625 -0.78125 1.609375q-0.25 1.046875 -0.25 2.609375l0 1.828125q0 1.546875 0.25 2.609375q0.265625 1.046875 0.78125 1.609375q0.53125 0.546875 1.1875 0.78125q0.65625 0.234375 1.5625 0.234375q0.921875 0 1.5625 -0.234375q0.65625 -0.234375 1.171875 -0.78125q0.53125 -0.5625 0.796875 -1.609375q0.265625 -1.0625 0.265625 -2.609375l0 -1.828125q0 -1.5625 -0.265625 -2.609375q-0.265625 -1.046875 -0.796875 -1.609375q-0.515625 -0.5625 -1.171875 -0.796875zm10.629379 8.421875l-0.28125 -0.484375l1.03125 -0.59375q1.296875 -0.71875 1.296875 -2.265625q0 -2.890625 -4.40625 -2.890625l-1.71875 0l0 14.0l-0.5625 0l0 -14.5625l2.28125 0q2.46875 0 3.71875 0.90625q1.25 0.90625 1.25 2.546875q0 1.875 -1.578125 2.75l-1.03125 0.59375zm12.478527 2.9375q-1.0312462 1.28125 -3.3593712 1.28125q-2.328125 0 -3.34375 -1.328125q-1.0 -1.328125 -1.0 -4.265625q0 -2.953125 1.0 -4.265625q1.015625 -1.328125 3.34375 -1.328125q2.703125 0 3.6718712 1.765625l-4.578121 3.828125l-0.875 0l4.71875 -3.9375q-0.8125 -1.109375 -2.9375 -1.109375q-0.9375 0 -1.578125 0.203125q-0.625 0.1875 -1.15625 0.71875q-0.53125 0.53125 -0.796875 1.5625q-0.265625 1.015625 -0.265625 2.5625q0 1.546875 0.265625 2.5625q0.265625 1.015625 0.796875 1.546875q0.53125 0.53125 1.15625 0.734375q0.640625 0.1875 1.578125 0.1875q2.125 0 2.9375 -1.09375l0.4218712 0.375zm2.9736328 1.09375l0 -10.828125l0.5625 0l6.078125 9.796875l0 -9.796875l0.5625 0l0 10.828125l-0.5625 0l-6.078125 -9.8125l0 9.8125l-0.5625 0zm12.433502 -0.5625l7.34375 0l0 -11.171875l-4.1875 8.984375l-4.203125 -9.0l0 11.75l-0.5625 -0.015625l0 -13.0625l0.5625 0l4.203125 9.015625l4.1875 -9.0l0.5625 -0.015625l0 13.078125l-7.90625 -0.015625l0 -0.546875zm16.974258 -9.6875q-0.640625 -0.203125 -1.578125 -0.203125q-0.921875 0 -1.5625 0.203125q-0.625 0.1875 -1.15625 0.71875q-0.53125 0.53125 -0.796875 1.5625q-0.265625 1.015625 -0.265625 2.5625q0 1.546875 0.265625 2.5625q0.265625 1.015625 0.796875 1.546875q0.53125 0.53125 1.15625 0.734375q0.640625 0.1875 1.5625 0.1875q0.9375 0 1.578125 -0.1875q0.640625 -0.203125 1.171875 -0.734375q0.53125 -0.53125 0.78125 -1.546875q0.265625 -1.015625 0.265625 -2.5625q0 -1.546875 -0.265625 -2.5625q-0.25 -1.03125 -0.78125 -1.5625q-0.53125 -0.53125 -1.171875 -0.71875zm1.765625 9.109375q-1.0 1.328125 -3.328125 1.328125q-2.328125 0 -3.34375 -1.328125q-1.0 -1.328125 -1.0 -4.265625q0 -2.953125 1.0 -4.265625q1.015625 -1.328125 3.34375 -1.328125q2.328125 0 3.328125 1.328125q1.015625 1.3125 1.015625 4.265625q0 2.9375 -1.015625 4.265625zm4.6338196 0q-1.0 -1.328125 -1.0 -4.265625q0 -2.953125 1.0 -4.265625q1.015625 -1.328125 3.34375 -1.328125q2.328125 0 3.359375 1.28125l-0.421875 0.375q-0.8125 -1.109375 -2.9375 -1.109375q-0.9375 0 -1.578125 0.203125q-0.625 0.1875 -1.15625 0.71875q-0.53125 0.53125 -0.796875 1.5625q-0.265625 1.015625 -0.265625 2.5625q0 1.546875 0.265625 2.5625q0.265625 1.015625 0.796875 1.546875q0.53125 0.53125 1.15625 0.734375q0.640625 0.1875 1.578125 0.1875q2.125 0 2.9375 -1.09375l0.421875 0.375q-1.03125 1.28125 -3.359375 1.28125q-2.328125 0 -3.34375 -1.328125zm9.471527 1.140625l0 -10.828125l0.5625 0l0 10.828125l-0.5625 0zm6.9062424 0l-5.7499924 -5.703125l5.1562424 -5.125l0.796875 0l-5.1406174 5.125l5.7499924 5.703125l-0.8125 0z" fill-rule="nonzero"/></g></svg>